<svg xmlns="http://www.w3.org/2000/svg" width="260" height="260"><path d="M167 193h-1c6.4-27.7 20-78.8-13-96.2-12.3-6.5-26.1-4.5-39-8.4-4.2-1.2-7.1-4.6-11-6.5-3.5-1.6-8.6-1.7-11.4-4.5-3.1-3-3.6-8.7-5.8-12.4-2.8-4.5-8.3-6.7-10.8-11.2-1.7-3-2.2-9.3-3-12.9-1.3-5.4 2.4-9.5 0-14.9h-2l-5 11-3-1c-3.1 4.7-5.2 11.7-9.5 15.4-4.5 4-12.3 4.8-17.5 8-8.2 5.1-14 13.4-18.7 21.6-2.3 4-6.5 9-4.7 14 5.6 14.6 23.8 4.7 33.4 9.3 7.6 3.7 15.4 24 18.7 31.7 6.2 14.3-12.6 27.2-1.7 42h4l5-18 12-13c9 6.7 4.6 13.6 5.5 23a53 53 0 0 0 8.5 24c-6.4 1-12.5 3.5-19 4-10.3.6-22.3-5-26 9l3 3 14-3-6 6 40-5.7 15 8.7v1c-4.1 1-14 1.9-11 8l-4 5 4-1-1 4 7-2-1 6 15-7-1 6c9-3.5 15-11.2 25-13.5 12.6-2.9 25.6.7 37-6.5l-1-2c11.8-6.4 18.8-22.8 25.4-34 2-3.5 7.3-10.5 3.6-14l5-23-3 1 3-14h-1l-2 4h-1c1.6-4 4-8.5 3.8-13-.2-4.8-4.6-11.5.2-15v-1l-2-2c10 4.3 12.8-1.8 14-11h1l-1 10c6.2-5 16.6-15.8 17.8-24 5-35-32.5-70.5-63.8-44.7-4.7 4-9.3 8.6-12.8 13.7-22 32 2.3 64.4 5.6 98 2 18.8-5.1 31.7-12.8 48z"/><path d="M70 41l1 1-1-1m147 103l1 1-1-1z" fill="#fff"/></svg>